<?xml version="1.0" encoding="UTF-8"?>
<svg width="3631px" height="2562px" viewBox="0 0 3631 2562" version="1.1" xmlns="http://www.w3.org/2000/svg" xmlns:xlink="http://www.w3.org/1999/xlink">
    <!-- Generator: Sketch 3.6.1 (26313) - http://www.bohemiancoding.com/sketch -->
    <title>encore cover</title>
    <desc>Created with Sketch.</desc>
    <defs>
        <linearGradient x1="50%" y1="0%" x2="50%" y2="100%" id="linearGradient-1">
            <stop stop-color="#FF512F" offset="0%"></stop>
            <stop stop-color="#DD2476" offset="100%"></stop>
        </linearGradient>
    </defs>
    <g id="Page-1" stroke="none" stroke-width="1" fill="none" fill-rule="evenodd">
        <g id="encore-cover-1" transform="translate(1.000000, 1.000000)">
            <rect id="Rectangle-1" fill="url(#linearGradient-1)" transform="translate(1814.500000, 1280.500000) rotate(-270.000000) translate(-1814.500000, -1280.500000) " x="534" y="-534" width="2561" height="3629"></rect>
            <g id="encore" transform="translate(1411.000000, 1204.000000)" fill="#FFFFFF">
                <g id="t1479931565474">
                    <g id="Shape">
                        <path d="M3.26178682,151.055901 C1.01930838,151.055901 0,150.036273 0,147.793093 L0,7.9002236 C0,5.86096894 1.22317006,5.04526708 3.26178682,5.04526708 L99.6883597,5.04526708 C101.726976,5.04526708 102.746285,6.06489441 102.746285,8.10414907 L102.746285,18.3004224 C102.746285,20.747528 101.726976,21.9710807 99.484498,21.9710807 L17.1243808,21.9710807 L17.1243808,46.4421366 L82.5639789,46.4421366 C84.398734,46.4421366 85.621904,48.0735404 85.621904,49.9088696 L85.621904,60.1051429 C85.621904,61.940472 84.398734,63.5718758 82.5639789,63.5718758 L17.1243808,63.5718758 L17.1243808,88.8586335 L82.5639789,88.8586335 C84.398734,88.8586335 85.621904,90.2861118 85.621904,92.121441 L85.621904,102.52164 C85.621904,104.153043 84.398734,105.988373 82.5639789,105.988373 L17.1243808,105.988373 L17.1243808,134.130087 L98.872913,134.130087 C100.91153,134.130087 102.542423,135.35364 102.542423,137.59682 L102.542423,147.589168 C102.542423,149.832348 101.319253,151.055901 99.0767747,151.055901 L3.26178682,151.055901 L3.26178682,151.055901 Z M242.391533,4.84134161 L243.410841,4.84134161 C246.468767,4.84134161 247.284213,6.26881988 247.284213,8.10414907 L246.264905,147.997019 C246.264905,150.036273 245.041735,151.055901 242.595395,151.055901 L229.548247,151.055901 L139.033663,28.7006211 L139.033663,104.560894 L174.709457,104.76482 C176.544212,104.76482 177.767382,106.192298 177.767382,108.027627 L177.767382,118.427826 C177.767382,120.263155 176.544212,121.894559 174.505595,121.894559 L125.171069,121.690634 C123.132452,121.690634 122.113144,120.671006 122.113144,119.039602 L122.113144,7.49237267 C122.113144,5.65704348 123.540176,4.22956522 125.578793,4.22956522 L139.645248,4.22956522 C141.07228,4.22956522 142.091588,4.84134161 142.907035,5.86096894 L229.548247,122.710261 L230.363694,7.9002236 C230.363694,6.26881988 231.790726,4.84134161 233.421619,4.84134161 L242.391533,4.84134161 L242.391533,4.84134161 Z M192.445422,133.926161 C194.280177,133.926161 195.503348,135.35364 195.503348,137.188969 L195.503348,147.589168 C195.503348,149.424497 194.076316,151.055901 192.241561,151.055901 L125.171069,151.055901 C123.336314,151.055901 122.113144,150.036273 122.113144,147.997019 L122.113144,137.59682 C122.113144,135.557565 123.132452,133.926161 125.374931,133.926161 L192.445422,133.926161 L192.445422,133.926161 Z M276.844156,113.941466 C273.58237,108.231553 280.105943,119.447453 276.844156,113.941466 C267.874243,98.6470559 264.816317,80.4976894 267.670381,62.9600994 C271.951476,38.0811925 289.075857,16.6690186 312.51995,6.67667081 C336.779489,-3.51960248 364.9124,-0.460720497 386.114015,15.0376149 C388.356493,16.6690186 388.764217,17.688646 387.744908,19.5239752 L382.648366,27.8849193 C381.017473,30.3320248 378.978856,30.9438012 376.940239,29.108472 C367.562602,21.7671553 355.942487,18.7082733 344.11851,17.8925714 C320.470555,17.8925714 298.045771,31.3516522 288.26041,53.3756025 C278.067326,76.4191801 284.387038,104.356969 303.957759,120.467081 C323.324619,136.781118 351.45753,138.004671 376.940239,121.894559 C379.182718,120.467081 380.202026,120.263155 381.83292,122.914186 C381.83292,122.914186 387.337185,132.090832 387.541047,132.498683 C388.560355,134.334012 387.133323,135.761491 385.50243,136.985043 C368.378049,149.628422 346.157126,153.910857 325.363235,149.220571 C304.977068,144.734211 287.241102,131.886907 276.844156,113.941466 L276.844156,113.941466 Z M482.948311,0.558906832 C524.332231,0.558906832 558.17327,34.4105342 558.17327,75.8074037 C558.17327,117.204273 524.332231,151.055901 482.948311,151.055901 C441.360529,151.055901 407.723352,117.204273 407.723352,75.8074037 C407.723352,34.4105342 441.360529,0.558906832 482.948311,0.558906832 L482.948311,0.558906832 Z M482.948311,134.537938 C515.158456,134.537938 541.456612,108.027627 541.456612,75.8074037 C541.456612,43.3832547 515.158456,17.0768696 482.948311,17.0768696 C450.534305,17.0768696 424.236148,43.3832547 424.236148,75.8074037 C424.236148,108.027627 450.534305,134.537938 482.948311,134.537938 L482.948311,134.537938 Z M579.986469,80.0898385 L639.310217,80.0898385 C653.784396,79.0702112 666.016096,65.407205 666.016096,50.9284969 C666.016096,36.0419379 653.376672,21.7671553 637.883185,21.7671553 L588.752521,21.7671553 C586.510043,21.7671553 585.490734,20.339677 585.490734,18.3004224 L585.490734,8.10414907 C585.490734,6.06489441 586.713904,5.04526708 588.752521,5.04526708 L638.087047,5.04526708 C662.346586,5.04526708 683.140477,26.0495901 683.140477,50.7245714 C683.140477,71.3210435 668.462436,90.0821863 648.483992,95.7920994 L680.286414,148.81272 C680.694137,149.628422 680.897999,150.036273 680.897999,150.444124 C680.897999,150.851975 680.286414,151.055901 679.063244,151.055901 L663.773618,151.055901 C661.735001,151.055901 660.307969,149.628422 659.288661,147.997019 L628.505548,96.8117267 L593.645201,96.8117267 L593.645201,147.997019 C593.645201,150.036273 592.625893,151.055901 590.587276,151.055901 L579.986469,151.055901 C577.74399,151.055901 576.724682,150.036273 576.724682,147.997019 L576.724682,83.5565714 C576.724682,81.5173168 578.151714,80.0898385 579.986469,80.0898385 L579.986469,80.0898385 Z M705.769123,151.055901 C703.526645,151.055901 702.507336,150.036273 702.507336,147.793093 L702.507336,7.9002236 C702.507336,5.86096894 703.730506,5.04526708 705.769123,5.04526708 L802.195696,5.04526708 C804.234313,5.04526708 805.253621,6.06489441 805.253621,8.10414907 L805.253621,18.3004224 C805.253621,20.747528 804.234313,21.9710807 801.991834,21.9710807 L719.631717,21.9710807 L719.631717,46.4421366 L785.071315,46.4421366 C786.90607,46.4421366 788.12924,48.0735404 788.12924,49.9088696 L788.12924,60.1051429 C788.12924,61.940472 786.90607,63.5718758 785.071315,63.5718758 L719.631717,63.5718758 L719.631717,88.8586335 L785.071315,88.8586335 C786.90607,88.8586335 788.12924,90.2861118 788.12924,92.121441 L788.12924,102.52164 C788.12924,104.153043 786.90607,105.988373 785.071315,105.988373 L719.631717,105.988373 L719.631717,134.130087 L801.380249,134.130087 C803.418866,134.130087 805.04976,135.35364 805.04976,137.59682 L805.04976,147.589168 C805.04976,149.832348 803.826589,151.055901 801.584111,151.055901 L705.769123,151.055901 L705.769123,151.055901 Z"></path>
                    </g>
                </g>
            </g>
        </g>
    </g>
</svg>